<svg xmlns="http://www.w3.org/2000/svg" viewBox="0 0 32 32">
  <defs>
    <linearGradient id="bg" x1="0%" y1="0%" x2="100%" y2="100%">
      <stop offset="0%" stop-color="#10B981"/>
      <stop offset="100%" stop-color="#0D9488"/>
    </linearGradient>
  </defs>

  <!-- Background rounded square -->
  <rect width="32" height="32" rx="7" fill="url(#bg)"/>

  <!-- Lucide Package icon (scaled to fit, centered) -->
  <!-- Original lucide viewBox 24x24, scaled to ~18px centered at offset 7,7 -->
  <g transform="translate(7, 7) scale(0.75)" stroke="white" stroke-width="2" stroke-linecap="round" stroke-linejoin="round" fill="none">
    <path d="M16.5 9.4 7.55 4.24"/>
    <path d="M21 16V8a2 2 0 0 0-1-1.73l-7-4a2 2 0 0 0-2 0l-7 4A2 2 0 0 0 3 8v8a2 2 0 0 0 1 1.73l7 4a2 2 0 0 0 2 0l7-4A2 2 0 0 0 21 16z"/>
    <polyline points="3.29 7 12 12 20.71 7"/>
    <line x1="12" y1="22" x2="12" y2="12"/>
  </g>
</svg>
